<svg viewBox="0 0 64 64" xmlns="http://www.w3.org/2000/svg">
  <defs>
    <linearGradient id="fg" x1="0%" y1="0%" x2="100%" y2="100%">
      <stop offset="0%" style="stop-color:#7b61ff"/>
      <stop offset="100%" style="stop-color:#ff6bdf"/>
    </linearGradient>
  </defs>
  <circle cx="32" cy="32" r="30" fill="url(#fg)"/>
  <!-- Ear tufts -->
  <path d="M22 12 L25 21 L18 19Z" fill="white" opacity="0.85"/>
  <path d="M42 12 L46 19 L39 21Z" fill="white" opacity="0.85"/>
  <!-- Head -->
  <ellipse cx="32" cy="22" rx="13" ry="11" fill="white" opacity="0.2"/>
  <!-- Body -->
  <ellipse cx="32" cy="40" rx="12" ry="14" fill="white" opacity="0.15"/>
  <!-- Left wing -->
  <path d="M14 28 Q12 40 18 50 Q22 44 22 34Z" fill="white" opacity="0.2"/>
  <!-- Right wing -->
  <path d="M50 28 Q52 40 46 50 Q42 44 42 34Z" fill="white" opacity="0.2"/>
  <!-- Chest feather pattern -->
  <path d="M27 32 Q32 36 37 32 Q34 38 32 40 Q30 38 27 32Z" fill="white" opacity="0.25"/>
  <path d="M28 38 Q32 42 36 38 Q34 44 32 46 Q30 44 28 38Z" fill="white" opacity="0.18"/>
  <!-- Left eye -->
  <circle cx="26" cy="21" r="6" fill="white" opacity="0.9"/>
  <circle cx="26" cy="21" r="3.8" fill="#2d1b69"/>
  <circle cx="27.2" cy="19.8" r="1.4" fill="white" opacity="0.9"/>
  <!-- Right eye -->
  <circle cx="38" cy="21" r="6" fill="white" opacity="0.9"/>
  <circle cx="38" cy="21" r="3.8" fill="#2d1b69"/>
  <circle cx="39.2" cy="19.8" r="1.4" fill="white" opacity="0.9"/>
  <!-- Beak -->
  <path d="M30.5 26 L32 30 L33.5 26Z" fill="#f5ac37"/>
  <!-- Eyebrow arcs -->
  <path d="M19 16 Q26 13 32 16" fill="none" stroke="white" stroke-width="1.2" opacity="0.45"/>
  <path d="M32 16 Q38 13 45 16" fill="none" stroke="white" stroke-width="1.2" opacity="0.45"/>
  <!-- Tail -->
  <path d="M28 52 L26 57 L30 55 L32 58 L34 55 L38 57 L36 52Z" fill="white" opacity="0.5"/>
  <!-- Talons -->
  <path d="M26 52 L24 55 M27 52 L27 55 M28 52 L30 55" stroke="white" stroke-width="1" opacity="0.6" fill="none" stroke-linecap="round"/>
  <path d="M36 52 L34 55 M37 52 L37 55 M38 52 L40 55" stroke="white" stroke-width="1" opacity="0.6" fill="none" stroke-linecap="round"/>
</svg>
